<svg width="104" height="31" viewBox="0 0 104 31" fill="none" xmlns="http://www.w3.org/2000/svg">
<path d="M32.6088 21.6279C32.6088 22.8521 32.3745 24.0076 31.9058 25.0942C31.4509 26.1671 30.8168 27.1094 30.0036 27.9209C29.2041 28.7187 28.2599 29.3514 27.1709 29.8191C26.0957 30.273 24.9447 30.5 23.7179 30.5C22.6152 30.5 21.5538 30.3074 20.5338 29.9223C19.5275 29.5371 18.6178 28.9732 17.8045 28.2304C16.9912 28.9732 16.0746 29.5371 15.0545 29.9223C14.0345 30.3074 12.9731 30.5 11.8703 30.5C10.6435 30.5 9.48567 30.273 8.39671 29.8191C7.32154 29.3514 6.37732 28.7187 5.56404 27.9209C4.76456 27.1094 4.13048 26.1671 3.66181 25.0942C3.20693 24.0076 2.97949 22.8521 2.97949 21.6279V0.5H8.91362V21.6279C8.91362 22.0406 8.98944 22.4326 9.14106 22.804C9.29269 23.1616 9.49945 23.478 9.76136 23.7531C10.037 24.0144 10.3541 24.2208 10.7125 24.3721C11.0709 24.5234 11.4568 24.599 11.8703 24.599C12.2839 24.599 12.6698 24.5234 13.0282 24.3721C13.3866 24.2208 13.6968 24.0144 13.9587 23.7531C14.2344 23.478 14.448 23.1616 14.5996 22.804C14.7513 22.4326 14.8271 22.0406 14.8271 21.6279V0.5H20.7612V21.6279C20.7612 22.0406 20.837 22.4326 20.9886 22.804C21.1403 23.1616 21.347 23.478 21.6089 23.7531C21.8846 24.0144 22.2017 24.2208 22.5601 24.3721C22.9184 24.5234 23.3044 24.599 23.7179 24.599C24.1315 24.599 24.5174 24.5234 24.8758 24.3721C25.2342 24.2208 25.5443 24.0144 25.8063 23.7531C26.0819 23.478 26.2956 23.1616 26.4472 22.804C26.6126 22.4326 26.6953 22.0406 26.6953 21.6279V0.5H32.6088V21.6279Z" fill="#101318"/>
<path d="M44.98 0.5H38.6089V30.5H44.98V0.5Z" fill="#101318"/>
<path d="M74.6958 30.2936H68.3482L56.9141 10.8163V30.2936H50.98V0.706299H57.3276L68.7617 20.2042V0.706299H74.6958V30.2936Z" fill="#101318"/>
<path d="M101.021 30.2936H80.6958V0.706299H101.021V6.62789H86.6299V12.5495H96.3685V18.4711H86.6299V24.372H101.021V30.2936Z" fill="#101318"/>
</svg>
